<svg xmlns="http://www.w3.org/2000/svg" viewBox="0 0 43.225 10.087" height="39" width="164" style="fill:#FFFFFF;"><path d="M6.17.413v7.524H4.553V4.744h-2.93v3.194H0V.413h1.623v3.023h2.93V.413zM8.248.098q.393 0 .63.227.243.222.243.574 0 .35-.243.58-.238.222-.63.222-.388 0-.63-.222Q7.38 1.25 7.38.9q0-.35.238-.574Q7.86.1 8.248.1zm-.775 7.84v-5.6H9.04v5.6zm8.8-2.522q-.052.775-.43 1.37-.372.594-1.044.925-.672.33-1.576.33-.966 0-1.674-.44-.708-.444-1.085-1.26-.372-.822-.372-1.933v-.46q0-1.106.388-1.928.388-.827 1.096-1.27.708-.444 1.654-.444.925 0 1.586.34.66.34 1.023.946.367.6.44 1.4h-1.62q-.047-.682-.377-1.013-.326-.336-1.054-.336-.76 0-1.127.558-.367.558-.367 1.747v.47q0 .8.15 1.307.15.5.475.75.326.248.863.248.698 0 1.04-.315.346-.32.393-.982zm.977 2.52V0h1.566v7.937zm3.607-7.84q.393 0 .63.227.243.222.243.574 0 .35-.243.58-.238.222-.63.222-.388 0-.63-.222-.238-.227-.238-.58 0-.35.238-.574.243-.227.63-.227zm-.775 7.84v-5.6h1.566v5.6zm5.642-5.695q.698 0 1.2.35.5.35.74.992.253.636.253 1.493v.1q0 .822-.253 1.473-.253.646-.744 1.013-.486.367-1.173.367-.816 0-1.338-.6v2.635h-1.56v-7.74h1.447l.057.537q.527-.64 1.385-.64zm.625 2.837q0-.723-.248-1.147-.248-.43-.78-.43-.677 0-.925.517v2.227q.258.537.935.537.532 0 .775-.44.243-.44.243-1.158zm12.603-2.837q.12 0 .253.02.134.016.217.04l-.02 1.5q-.3-.04-.553-.04-.837 0-1.1.553v3.612h-1.56v-5.6h1.468l.047.677q.207-.377.522-.58.32-.202.718-.202zM42.8 6.76q.253 0 .434-.036v1.173q-.403.145-.92.145-1.643 0-1.643-1.674V3.483h-.8V2.346h.8V.96h1.56v1.385h.94v1.137h-.94v2.703q0 .33.13.455.13.12.44.12zM31.903 8.102l-.437-.437c-1.622-1.435-2.682-2.402-2.682-3.587A1.69 1.69 0 0 1 30.5 2.363a1.88 1.88 0 0 1 1.404.655c.343-.405.873-.655 1.404-.655a1.69 1.69 0 0 1 1.716 1.716c0 1.185-1.06 2.152-2.682 3.587z"/></svg>